<?xml version="1.0" standalone="no"?>
<!DOCTYPE svg PUBLIC "-//W3C//DTD SVG 20010904//EN"
 "http://www.w3.org/TR/2001/REC-SVG-20010904/DTD/svg10.dtd">
<svg version="1.0" xmlns="http://www.w3.org/2000/svg"
 width="854.000000pt" height="246.000000pt" viewBox="0 0 854.000000 246.000000"
 preserveAspectRatio="xMidYMid meet">
<metadata>
Created by potrace 1.16, written by Peter Selinger 2001-2019
</metadata>
<g transform="translate(0.000000,246.000000) scale(0.100000,-0.100000)"
fill="#000000" stroke="none">
<path d="M1700 1710 c0 -5 -9 -10 -20 -10 -22 0 -27 -15 -7 -23 8 -4 6 -6 -4
-6 -9 -1 -24 -10 -33 -20 -10 -11 -25 -17 -34 -14 -14 4 -14 3 -3 -5 14 -10 7
-32 -10 -32 -6 0 -7 5 -4 10 3 6 2 10 -4 10 -5 0 -13 -9 -16 -20 -3 -11 -15
-20 -26 -20 -10 0 -19 -7 -19 -15 0 -8 -8 -15 -18 -15 -10 0 -29 -12 -42 -28
-14 -15 -37 -33 -52 -39 -18 -8 -28 -21 -29 -35 -1 -19 -2 -20 -6 -4 -3 10
-13 28 -23 38 -17 18 -17 18 -10 -20 3 -21 3 -47 -1 -58 -6 -15 -8 -13 -8 11
-1 30 -42 117 -67 143 -21 20 -17 5 7 -27 12 -16 19 -35 17 -43 -3 -8 -14 1
-28 25 -16 27 -27 36 -40 32 -9 -3 -29 4 -43 16 -15 11 -27 17 -27 13 0 -4 8
-13 17 -20 21 -14 18 -19 -17 -28 -18 -5 -21 -5 -11 3 13 8 11 13 -9 29 -23
18 -27 19 -54 5 -26 -14 -28 -14 -23 1 6 15 4 15 -22 1 -16 -8 -31 -21 -35
-30 -4 -13 -2 -14 14 -5 22 12 40 6 40 -13 0 -13 -73 -17 -86 -5 -4 4 -13 3
-21 -3 -17 -14 -18 3 -2 34 11 20 10 21 -6 6 -14 -14 -21 -32 -24 -62 -1 -5
-6 -5 -11 -2 -15 9 -12 -28 3 -50 11 -14 22 -17 56 -12 l42 5 -48 -47 c-26
-27 -58 -68 -70 -92 -23 -47 -67 -167 -77 -209 -3 -14 -12 -34 -21 -45 -16
-19 -16 -19 -5 3 16 32 6 38 -26 16 -15 -11 -39 -26 -54 -34 -14 -8 -37 -25
-50 -37 -29 -28 -87 -26 -119 6 -19 19 -20 25 -9 38 12 15 11 15 -10 4 -17 -9
-27 -9 -36 -2 -7 6 -15 8 -19 5 -10 -11 -67 7 -67 22 0 18 -35 26 -85 20 -22
-2 -42 -5 -45 -6 -3 -2 -8 -2 -12 -1 -12 2 -10 -17 2 -24 12 -7 4 -25 -11 -25
-5 0 -9 6 -8 13 3 24 -1 37 -12 37 -6 0 -8 -14 -5 -37 4 -24 3 -33 -3 -24 -5
9 -14 10 -22 5 -21 -13 -73 -13 -81 -1 -5 8 -12 6 -25 -5 -20 -17 -43 -14 -43
8 0 8 -5 14 -11 14 -5 0 -7 5 -3 12 5 7 3 8 -5 4 -7 -5 -10 -14 -7 -22 3 -8 1
-14 -5 -14 -6 0 -9 -6 -6 -12 2 -7 11 -12 21 -10 9 2 16 -4 16 -13 0 -8 -9
-15 -20 -15 -11 0 -20 -4 -20 -10 0 -5 3 -10 8 -10 4 0 7 -24 8 -53 0 -58 21
-128 67 -230 29 -64 32 -68 60 -65 19 2 32 -2 35 -11 3 -10 -3 -12 -29 -6 -24
5 -31 4 -24 -3 6 -6 23 -13 39 -15 28 -3 51 -27 27 -27 -6 0 -11 -9 -11 -20 0
-15 7 -20 28 -20 22 0 32 9 53 48 69 126 188 311 224 347 38 39 46 43 154 65
70 14 119 20 126 14 7 -5 30 -21 51 -35 52 -36 109 -92 96 -97 -17 -5 -65 30
-52 38 8 5 9 10 2 14 -6 3 -12 1 -14 -6 -3 -8 -13 -6 -34 8 -100 70 -46 20 69
-63 29 -21 30 -23 9 -23 -12 0 -51 14 -85 31 -68 35 -117 52 -117 40 0 -4 -9
-7 -20 -8 -11 -1 -34 -8 -49 -16 -20 -10 -33 -11 -40 -4 -6 6 -16 4 -28 -8
-17 -18 -34 -60 -83 -205 -12 -36 -26 -72 -31 -80 -13 -20 -51 -103 -53 -115
-1 -5 -13 -33 -27 -61 l-25 -51 38 -27 c21 -15 42 -24 48 -21 5 3 10 -1 10 -9
0 -17 105 -79 182 -106 l53 -19 17 22 c10 12 18 17 18 10 0 -6 -4 -15 -10 -18
-43 -27 87 -57 271 -63 l145 -4 -13 83 c-7 46 -16 140 -19 209 -4 69 -14 148
-23 175 l-16 50 53 49 c49 46 52 48 52 24 0 -14 -13 -55 -30 -91 -16 -37 -30
-70 -30 -73 0 -4 16 10 35 32 l34 39 1 -38 c0 -72 43 -143 105 -174 17 -8 41
-25 55 -37 l24 -21 -16 25 c-8 14 -35 36 -58 50 -55 32 -67 64 -50 137 l12 54
36 -23 c20 -12 56 -27 81 -34 50 -12 58 -26 60 -99 0 -31 -2 -37 -10 -25 -7
11 -12 12 -15 3 -3 -7 -12 -9 -21 -6 -11 4 -14 2 -9 -8 3 -8 9 -21 12 -30 3
-9 16 -22 29 -29 29 -15 36 -62 17 -103 -15 -31 -10 -57 10 -57 7 0 46 19 87
41 l73 41 -35 23 c-32 23 -34 26 -27 63 8 48 42 104 75 126 31 21 35 20 35 -4
0 -11 -5 -20 -10 -20 -18 0 -50 -64 -49 -100 0 -34 1 -34 13 13 12 45 40 87
57 87 5 0 13 -18 19 -40 9 -33 8 -44 -6 -65 -9 -14 -14 -28 -11 -32 4 -3 11 6
18 20 6 14 17 23 24 21 6 -3 17 2 24 9 13 16 -8 56 -61 120 -16 18 -28 44 -28
61 0 21 -4 27 -15 22 -8 -3 -14 -2 -13 2 3 10 -41 91 -68 127 -12 17 -26 44
-30 60 -3 17 -18 41 -33 53 l-26 24 -3 -22 c-3 -18 -8 -20 -33 -15 -22 5 -28
3 -24 -7 4 -9 -7 -14 -40 -16 -32 -2 -45 1 -45 10 0 10 -2 10 -9 -1 -6 -9 -19
-12 -37 -8 -16 3 -51 2 -79 -3 -29 -4 -60 -4 -75 2 -24 10 -24 11 -5 18 19 8
19 9 -2 9 -13 1 -23 5 -23 10 0 4 35 11 79 14 43 3 94 12 112 20 19 9 77 33
129 53 52 20 101 45 108 55 7 10 19 16 27 13 8 -4 15 -1 15 5 0 6 5 11 11 11
6 0 8 -7 5 -16 -4 -10 1 -22 11 -31 17 -13 16 -13 -7 -7 -14 3 -22 3 -18 -1 4
-4 18 -9 32 -10 28 -3 44 22 21 31 -8 4 -15 11 -15 16 0 6 7 8 14 5 10 -4 13
-1 9 9 -3 7 0 14 6 14 6 0 10 -3 10 -7 -4 -23 3 -35 16 -30 16 7 30 -9 16 -18
-8 -4 -9 -24 -2 -67 0 -5 9 -8 19 -8 10 0 23 -5 30 -12 9 -9 12 -9 12 0 0 24
19 11 25 -17 4 -20 11 -28 20 -25 7 3 18 -4 24 -15 14 -26 44 -17 36 10 -7 22
-2 23 26 9 13 -7 19 -7 19 0 0 5 -3 10 -8 10 -4 0 -12 10 -17 23 -6 12 -16 21
-23 20 -7 -2 -9 4 -5 14 5 12 3 14 -6 8 -24 -14 -31 17 -10 43 13 16 17 32 13
46 -6 18 -5 19 10 7 14 -12 16 -11 16 6 0 11 11 26 25 33 19 10 22 16 13 22
-10 6 -10 10 2 17 17 12 30 5 30 -16 0 -13 3 -13 15 -3 8 7 15 9 15 4 0 -4 5
-3 11 3 6 6 25 9 43 6 l31 -5 3 61 c4 68 -9 142 -41 243 -14 46 -24 64 -30 55
-6 -8 -7 -6 -3 6 7 22 -45 129 -79 163 -13 13 -22 24 -19 24 9 0 -15 36 -56
83 -39 44 -70 60 -70 37z m-583 -382 c25 -23 30 -57 11 -76 -9 -9 -7 -13 5
-18 33 -12 19 -34 -22 -34 -52 0 -71 -20 -71 -76 0 -46 -1 -47 -54 -59 -23 -5
-27 -3 -22 10 5 13 2 14 -17 4 -12 -7 -34 -20 -48 -30 -28 -19 -39 -16 -39 11
0 36 26 54 72 52 56 -3 86 19 90 68 3 31 0 36 -30 45 l-33 11 25 14 c14 7 28
21 31 31 10 29 45 69 63 69 8 0 26 -10 39 -22z m-427 -586 c0 -4 -5 -13 -12
-20 -7 -7 -9 -12 -4 -12 4 0 -11 -34 -33 -75 -32 -60 -36 -75 -23 -75 12 0 7
-9 -16 -32 -18 -18 -45 -48 -60 -66 -23 -29 -29 -31 -44 -20 -16 12 -16 17 3
88 12 41 21 81 22 89 0 7 24 29 53 48 29 19 60 46 69 59 15 23 45 33 45 16z"/>
<path d="M341 1325 c-24 -8 -48 -20 -52 -27 -6 -9 -9 -8 -15 5 -3 9 -11 17
-16 17 -6 0 -8 -7 -4 -15 4 -11 -1 -15 -17 -14 -12 0 -16 3 -9 6 14 5 16 23 3
23 -5 0 -29 -18 -52 -41 l-43 -41 -17 23 -17 22 -11 -21 c-16 -30 -14 -52 7
-52 14 -1 13 -4 -7 -20 l-23 -20 28 0 c34 0 21 -18 -16 -22 -14 -2 -29 -7 -33
-13 -4 -5 -5 2 -1 18 5 21 3 27 -10 27 -9 0 -16 -6 -16 -14 0 -8 -6 -17 -12
-19 -8 -3 -6 -6 5 -6 9 -1 17 -5 17 -11 0 -5 -8 -10 -17 -10 -17 -1 -17 -1 0
-11 21 -12 23 -31 2 -23 -10 4 -15 0 -15 -15 0 -17 5 -20 30 -17 34 4 52 16
33 23 -18 6 -16 23 2 23 8 0 15 -9 15 -20 0 -21 15 -27 25 -10 4 6 10 8 14 5
5 -2 21 14 36 38 16 23 30 36 33 29 6 -18 22 -15 22 6 0 13 10 17 46 19 32 2
44 -1 41 -10 -2 -7 -13 -10 -23 -9 -15 3 -16 1 -7 -8 7 -8 28 -10 60 -6 73 9
86 8 94 -5 5 -8 36 -13 88 -14 87 -1 91 -3 127 -69 12 -21 19 -25 27 -17 9 9
8 14 -3 21 -12 7 -10 12 9 29 28 24 49 17 26 -9 -15 -17 -6 -38 9 -22 4 4 13
7 19 7 7 0 12 9 12 20 1 11 4 25 7 30 8 14 -18 49 -30 41 -6 -3 -12 -1 -14 5
-5 14 -38 0 -38 -17 0 -8 -4 -14 -9 -14 -14 0 -20 27 -8 39 6 6 7 14 3 18 -4
5 -14 0 -21 -11 -8 -10 -18 -15 -24 -11 -7 3 -8 0 -5 -9 3 -9 1 -16 -5 -16 -6
0 -11 4 -11 10 0 5 -9 14 -21 21 -19 10 -20 9 -14 -11 6 -20 6 -21 -13 -4 -23
19 -19 40 9 47 10 3 19 13 19 22 0 12 -5 15 -16 11 -10 -4 -18 0 -21 13 -3 13
-11 18 -21 14 -14 -4 -13 -1 2 11 17 14 18 16 2 22 -9 3 -22 2 -29 -4 -6 -5
-34 -10 -62 -11 -62 -2 -82 -5 -91 -14 -18 -17 -23 -5 -8 18 9 14 25 25 35 25
11 0 19 5 19 10 0 6 5 10 10 10 6 0 10 -7 10 -15 0 -11 9 -14 35 -12 19 1 35
2 35 3 0 1 -8 11 -19 22 -21 25 -38 26 -100 7z"/>
<path d="M1898 996 c-10 -8 -13 -17 -8 -26 5 -9 2 -29 -6 -50 -12 -28 -17 -32
-24 -20 -8 13 -11 13 -19 1 -5 -8 -14 -10 -21 -6 -8 5 -11 4 -6 -3 3 -6 23 -9
44 -7 20 3 43 1 51 -4 17 -11 4 -34 -15 -27 -7 3 -16 1 -19 -4 -4 -6 1 -10 9
-10 9 0 16 -7 16 -15 0 -8 8 -15 18 -16 10 0 12 -3 5 -6 -7 -2 -13 -11 -13
-19 0 -8 -7 -14 -15 -14 -8 0 -15 -7 -15 -16 0 -13 3 -14 14 -5 20 16 27 0 17
-36 -9 -32 1 -64 13 -44 4 6 18 43 31 81 l24 70 -25 27 c-26 28 -33 53 -9 33
11 -10 18 -9 30 3 19 20 19 37 0 37 -9 0 -18 7 -21 15 -6 14 -8 13 -19 -1 -18
-25 -31 2 -14 32 15 30 2 48 -23 30z"/>
</g>
</svg>
